<svg width="49" height="48" viewBox="0 0 49 48" fill="none" xmlns="http://www.w3.org/2000/svg">
<g clip-path="url(#clip0_62_5)">
<path d="M24.4999 4.32187C30.9124 4.32187 31.6718 4.35 34.1937 4.4625C36.5374 4.56562 37.8031 4.95938 38.6468 5.2875C39.7624 5.71875 40.5687 6.24375 41.4031 7.07812C42.2468 7.92188 42.7624 8.71875 43.1937 9.83438C43.5218 10.6781 43.9156 11.9531 44.0187 14.2875C44.1312 16.8187 44.1593 17.5781 44.1593 23.9813C44.1593 30.3938 44.1312 31.1531 44.0187 33.675C43.9156 36.0188 43.5218 37.2844 43.1937 38.1281C42.7624 39.2438 42.2374 40.05 41.4031 40.8844C40.5593 41.7281 39.7624 42.2438 38.6468 42.675C37.8031 43.0031 36.5281 43.3969 34.1937 43.5C31.6624 43.6125 30.9031 43.6406 24.4999 43.6406C18.0874 43.6406 17.3281 43.6125 14.8062 43.5C12.4624 43.3969 11.1968 43.0031 10.3531 42.675C9.23744 42.2438 8.43119 41.7188 7.59681 40.8844C6.75306 40.0406 6.23744 39.2438 5.80619 38.1281C5.47806 37.2844 5.08431 36.0094 4.98119 33.675C4.86869 31.1438 4.84056 30.3844 4.84056 23.9813C4.84056 17.5688 4.86869 16.8094 4.98119 14.2875C5.08431 11.9437 5.47806 10.6781 5.80619 9.83438C6.23744 8.71875 6.76244 7.9125 7.59681 7.07812C8.44056 6.23438 9.23744 5.71875 10.3531 5.2875C11.1968 4.95938 12.4718 4.56562 14.8062 4.4625C17.3281 4.35 18.0874 4.32187 24.4999 4.32187ZM24.4999 0C17.9843 0 17.1687 0.028125 14.6093 0.140625C12.0593 0.253125 10.3062 0.665625 8.78744 1.25625C7.20306 1.875 5.86244 2.69062 4.53119 4.03125C3.19056 5.3625 2.37494 6.70313 1.75619 8.27813C1.16556 9.80625 0.753064 11.55 0.640564 14.1C0.528064 16.6687 0.499939 17.4844 0.499939 24C0.499939 30.5156 0.528064 31.3313 0.640564 33.8906C0.753064 36.4406 1.16556 38.1938 1.75619 39.7125C2.37494 41.2969 3.19056 42.6375 4.53119 43.9688C5.86244 45.3 7.20306 46.125 8.77806 46.7344C10.3062 47.325 12.0499 47.7375 14.5999 47.85C17.1593 47.9625 17.9749 47.9906 24.4906 47.9906C31.0062 47.9906 31.8218 47.9625 34.3812 47.85C36.9312 47.7375 38.6843 47.325 40.2031 46.7344C41.7781 46.125 43.1187 45.3 44.4499 43.9688C45.7812 42.6375 46.6062 41.2969 47.2156 39.7219C47.8062 38.1938 48.2187 36.45 48.3312 33.9C48.4437 31.3406 48.4718 30.525 48.4718 24.0094C48.4718 17.4938 48.4437 16.6781 48.3312 14.1188C48.2187 11.5688 47.8062 9.81563 47.2156 8.29688C46.6249 6.70312 45.8093 5.3625 44.4687 4.03125C43.1374 2.7 41.7968 1.875 40.2218 1.26562C38.6937 0.675 36.9499 0.2625 34.3999 0.15C31.8312 0.028125 31.0156 0 24.4999 0Z" fill="white"/>
<path d="M24.4999 11.6719C17.6937 11.6719 12.1718 17.1938 12.1718 24C12.1718 30.8062 17.6937 36.3281 24.4999 36.3281C31.3062 36.3281 36.8281 30.8062 36.8281 24C36.8281 17.1938 31.3062 11.6719 24.4999 11.6719ZM24.4999 31.9969C20.0843 31.9969 16.5031 28.4156 16.5031 24C16.5031 19.5844 20.0843 16.0031 24.4999 16.0031C28.9156 16.0031 32.4968 19.5844 32.4968 24C32.4968 28.4156 28.9156 31.9969 24.4999 31.9969Z" fill="white"/>
<path d="M40.1937 11.1843C40.1937 12.778 38.8999 14.0624 37.3156 14.0624C35.7218 14.0624 34.4374 12.7687 34.4374 11.1843C34.4374 9.59053 35.7312 8.30615 37.3156 8.30615C38.8999 8.30615 40.1937 9.5999 40.1937 11.1843Z" fill="white"/>
</g>
<defs>
<clipPath id="clip0_62_5">
<rect width="48" height="48" fill="white" transform="translate(0.499939)"/>
</clipPath>
</defs>
</svg>
