<svg width="49" height="48" viewBox="0 0 49 48" fill="none" xmlns="http://www.w3.org/2000/svg">
<g clip-path="url(#clip0_12_494)">
<path fill-rule="evenodd" clip-rule="evenodd" d="M48.4999 24C48.4999 37.2548 37.7548 48 24.4999 48C11.2451 48 0.499939 37.2548 0.499939 24C0.499939 10.7452 11.2451 0 24.4999 0C37.7548 0 48.4999 10.7452 48.4999 24ZM25.36 17.7179C23.0256 18.6888 18.3602 20.6984 11.3637 23.7466C10.2276 24.1984 9.63245 24.6404 9.57827 25.0726C9.48671 25.803 10.4014 26.0906 11.6469 26.4822C11.8163 26.5355 11.9918 26.5907 12.1718 26.6492C13.3972 27.0475 15.0456 27.5135 15.9025 27.5321C16.6798 27.5489 17.5474 27.2284 18.5052 26.5707C25.0423 22.158 28.4167 19.9276 28.6286 19.8795C28.778 19.8456 28.9851 19.803 29.1255 19.9277C29.2658 20.0524 29.252 20.2886 29.2371 20.352C29.1465 20.7383 25.5562 24.0762 23.6982 25.8036C23.119 26.3421 22.7081 26.724 22.6241 26.8113C22.4359 27.0067 22.2442 27.1915 22.0599 27.3692C20.9215 28.4667 20.0678 29.2896 22.1072 30.6336C23.0872 31.2794 23.8715 31.8135 24.6539 32.3463C25.5083 32.9282 26.3605 33.5085 27.4632 34.2313C27.7441 34.4155 28.0124 34.6068 28.2737 34.7931C29.2681 35.5019 30.1614 36.1388 31.2651 36.0373C31.9064 35.9782 32.5689 35.3752 32.9053 33.5767C33.7004 29.3263 35.2632 20.1169 35.6244 16.3219C35.656 15.9895 35.6162 15.5639 35.5842 15.3771C35.5523 15.1904 35.4855 14.9242 35.2427 14.7272C34.9551 14.4939 34.5112 14.4447 34.3127 14.4482C33.41 14.4641 32.025 14.9456 25.36 17.7179Z" fill="white"/>
</g>
<defs>
<clipPath id="clip0_12_494">
<rect width="48" height="48" fill="white" transform="translate(0.499939)"/>
</clipPath>
</defs>
</svg>
