<svg width="49" height="48" viewBox="0 0 49 48" fill="none" xmlns="http://www.w3.org/2000/svg">
<g clip-path="url(#clip0_12_496)">
<path fill-rule="evenodd" clip-rule="evenodd" d="M3.87407 3.37413C0.499939 6.74826 0.499939 12.1788 0.499939 23.04V24.96C0.499939 35.8212 0.499939 41.2517 3.87407 44.6259C7.2482 48 12.6787 48 23.5399 48H25.4599C36.3211 48 41.7516 48 45.1258 44.6259C48.4999 41.2517 48.4999 35.8212 48.4999 24.96V23.04C48.4999 12.1788 48.4999 6.74826 45.1258 3.37413C41.7516 0 36.3211 0 25.4599 0H23.5399C12.6787 0 7.2482 0 3.87407 3.37413ZM8.60006 14.6001C8.86006 27.0801 15.1 34.5801 26.04 34.5801H26.6601V27.4401C30.6801 27.8401 33.7199 30.7801 34.9399 34.5801H40.62C39.06 28.9001 34.9598 25.7601 32.3998 24.5601C34.9598 23.0801 38.5598 19.4801 39.4198 14.6001H34.2597C33.1397 18.5601 29.8201 22.1601 26.6601 22.5001V14.6001H21.4999V28.4401C18.2999 27.6401 14.26 23.7601 14.08 14.6001H8.60006Z" fill="white"/>
</g>
<defs>
<clipPath id="clip0_12_496">
<rect width="48" height="48" fill="white" transform="translate(0.499939)"/>
</clipPath>
</defs>
</svg>
