<svg width="49" height="48" viewBox="0 0 49 48" fill="none" xmlns="http://www.w3.org/2000/svg">
<path d="M0.499939 48L3.87394 35.674C1.79194 32.066 0.697939 27.976 0.699939 23.782C0.705939 10.67 11.3759 0 24.4859 0C30.8479 0.002 36.8199 2.48 41.3119 6.976C45.8019 11.472 48.2739 17.448 48.2719 23.804C48.2659 36.918 37.5959 47.588 24.4859 47.588C20.5059 47.586 16.5839 46.588 13.1099 44.692L0.499939 48ZM13.6939 40.386C17.0459 42.376 20.2459 43.568 24.4779 43.57C35.3739 43.57 44.2499 34.702 44.2559 23.8C44.2599 12.876 35.4259 4.02 24.4939 4.016C13.5899 4.016 4.71994 12.884 4.71594 23.784C4.71394 28.234 6.01794 31.566 8.20794 35.052L6.20994 42.348L13.6939 40.386ZM36.4679 29.458C36.3199 29.21 35.9239 29.062 35.3279 28.764C34.7339 28.466 31.8119 27.028 31.2659 26.83C30.7219 26.632 30.3259 26.532 29.9279 27.128C29.5319 27.722 28.3919 29.062 28.0459 29.458C27.6999 29.854 27.3519 29.904 26.7579 29.606C26.1639 29.308 24.2479 28.682 21.9779 26.656C20.2119 25.08 19.0179 23.134 18.6719 22.538C18.3259 21.944 18.6359 21.622 18.9319 21.326C19.1999 21.06 19.5259 20.632 19.8239 20.284C20.1259 19.94 20.2239 19.692 20.4239 19.294C20.6219 18.898 20.5239 18.55 20.3739 18.252C20.2239 17.956 19.0359 15.03 18.5419 13.84C18.0579 12.682 17.5679 12.838 17.2039 12.82L16.0639 12.8C15.6679 12.8 15.0239 12.948 14.4799 13.544C13.9359 14.14 12.3999 15.576 12.3999 18.502C12.3999 21.428 14.5299 24.254 14.8259 24.65C15.1239 25.046 19.0159 31.05 24.9779 33.624C26.3959 34.236 27.5039 34.602 28.3659 34.876C29.7899 35.328 31.0859 35.264 32.1099 35.112C33.2519 34.942 35.6259 33.674 36.1219 32.286C36.6179 30.896 36.6179 29.706 36.4679 29.458Z" fill="white"/>
</svg>
